<?xml version="1.0" encoding="UTF-8"?>
<svg xmlns="http://www.w3.org/2000/svg" xmlns:xlink="http://www.w3.org/1999/xlink" width="50pt" height="100pt" viewBox="0 0 50 100" version="1.1">
<g id="surface1">
<path style=" stroke:none;fill-rule:nonzero;fill:rgb(0%,0%,0%);fill-opacity:1;" d="M 24.695312 0.203125 C 24.601562 0.320312 24.53125 0.453125 24.53125 0.507812 C 24.53125 0.554688 24.390625 0.710938 24.210938 0.859375 C 23.789062 1.195312 23.414062 1.789062 22.34375 3.828125 C 19.28125 9.65625 17.414062 12.28125 12.5 17.65625 C 10.734375 19.59375 10.3125 20.1875 10.539062 20.414062 C 10.820312 20.695312 12.921875 19.726562 14.648438 18.53125 C 18.539062 15.828125 21.789062 11.90625 23.554688 7.789062 C 23.71875 7.414062 23.875 7.109375 23.914062 7.109375 C 24 7.109375 24 7.125 23.90625 8.125 C 22.695312 21.226562 22.460938 58.421875 23.4375 83.085938 C 23.804688 92.34375 24.304688 98.34375 24.820312 99.617188 C 25.007812 100.09375 25.15625 99.882812 25.359375 98.84375 C 25.929688 95.898438 26.328125 88.609375 26.65625 75.15625 C 26.796875 69.625 26.796875 41.648438 26.65625 35.625 C 26.546875 30.703125 26.351562 23.929688 26.289062 22.617188 C 26.265625 22.140625 26.210938 20.828125 26.171875 19.6875 C 25.976562 14.648438 25.640625 9.59375 25.328125 7.015625 C 25.265625 6.53125 25.3125 6.210938 25.414062 6.375 C 25.429688 6.414062 25.601562 6.796875 25.78125 7.226562 C 27.578125 11.46875 30.726562 15.375 34.648438 18.242188 C 36.554688 19.632812 38.835938 20.757812 39.390625 20.578125 C 39.828125 20.445312 39.335938 19.765625 36.953125 17.1875 C 32.507812 12.398438 30.304688 9.328125 27.203125 3.578125 C 25.859375 1.085938 25.445312 0.414062 25.085938 0.164062 L 24.859375 0 Z M 24.695312 0.203125 "/>
</g>
</svg>
